<?xml version="1.0" encoding="ISO-8859-1" standalone="no"?><svg xmlns="http://www.w3.org/2000/svg" xmlns:xlink="http://www.w3.org/1999/xlink" id="Layer_1" style="" version="1.1" viewBox="0 0 1874.7 287.9" x="0px" xml:space="preserve" y="0px">
<path d="M488.3,132.8h-21.1v95.6h-30.9v-95.6h-13.7v-25.1h13.7v-6.1c0-14.8,4.2-25.7,12.6-32.7  S470,58.7,487,59.1v25.7c-7.4-0.1-12.6,1.1-15.5,3.7s-4.4,7.3-4.4,14.2v5h21.1L488.3,132.8L488.3,132.8L488.3,132.8z" style="fill:#0000D9;"/>
<rect height="161.2" style="fill:#0000D9;" width="30.5" x="508.1" y="67.2"/>
<path d="M566.4,88.2c-3.6-3.4-5.3-7.7-5.3-12.8s1.8-9.3,5.3-12.8c3.5-3.4,8-5.1,13.4-5.1s9.8,1.7,13.4,5.1  c3.5,3.4,5.3,7.7,5.3,12.8s-1.8,9.3-5.3,12.8c-3.6,3.4-8,5.1-13.4,5.1S570,91.6,566.4,88.2 M594.8,228.4h-30.5V107.7h30.5V228.4z" style="fill:#0000D9;"/>
<path d="M691.6,111.1c6.8,3.6,12.2,8.2,16.1,13.8v-17.2h30.7v121.6c0,11.2-2.2,21.2-6.8,30  c-4.5,8.8-11.3,15.8-20.3,20.9s-19.9,7.7-32.7,7.7c-17.1,0-31.2-4-42.2-12s-17.2-18.9-18.6-32.7h30.3c1.6,5.5,5.1,9.9,10.3,13.2  c5.3,3.3,11.7,4.9,19.3,4.9c8.8,0,16.1-2.6,21.6-8c5.5-5.3,8.3-13.3,8.3-24.1v-18.7c-3.9,5.7-9.3,10.4-16.2,14.2s-14.8,5.7-23.6,5.7  c-10.2,0-19.5-2.6-27.9-7.9c-8.4-5.2-15.1-12.6-19.9-22.1c-4.9-9.5-7.3-20.4-7.3-32.8s2.4-23,7.3-32.5c4.9-9.4,11.5-16.7,19.8-21.8  c8.3-5.1,17.7-7.6,28-7.6C676.8,105.8,684.8,107.5,691.6,111.1 M703.3,149c-2.9-5.3-6.8-9.4-11.8-12.2c-4.9-2.8-10.2-4.2-15.9-4.2  s-10.9,1.4-15.7,4.1c-4.8,2.8-8.7,6.8-11.7,12.1s-4.5,11.6-4.5,18.9s1.5,13.6,4.5,19.1c3,5.4,6.9,9.6,11.8,12.5  c4.9,2.9,10,4.4,15.6,4.4s11-1.4,15.9-4.2s8.8-6.9,11.8-12.2s4.4-11.7,4.4-19.1C707.7,160.7,706.2,154.3,703.3,149" style="fill:#0000D9;"/>
<path d="M851.9,112c7.1,4,12.7,9.9,16.7,17.7s6,17.1,6,28v70.8h-30.5v-66.7c0-9.6-2.4-16.9-7.2-22.1  c-4.8-5.2-11.3-7.7-19.6-7.7s-15.1,2.6-19.9,7.7s-7.3,12.5-7.3,22.1v66.7h-30.5V67.2h30.5v55.6c3.9-5.2,9.2-9.3,15.7-12.3  s13.8-4.5,21.8-4.5C836.7,106,844.8,108,851.9,112" style="fill:#0000D9;"/>
<path d="M930.6,132.8v58.4c0,4.1,1,7,2.9,8.8c2,1.8,5.3,2.7,9.9,2.7h14.2v25.7h-19.2  c-25.7,0-38.6-12.5-38.6-37.5v-58.2h-14.4v-25.1h14.4V77.9h30.7v29.8h27v25.1L930.6,132.8L930.6,132.8z" style="fill:#0000D9;"/>
<path d="M1124.5,119.6c8.8,9.1,13.3,21.8,13.3,38v70.8h-30.5v-66.7c0-9.6-2.4-16.9-7.2-22.1  c-4.8-5.2-11.3-7.7-19.6-7.7s-15.1,2.6-19.9,7.7c-4.8,5.1-7.3,12.5-7.3,22.1v66.7h-30.5V107.7h30.5v15c4.1-5.2,9.3-9.3,15.6-12.3  c6.3-3,13.3-4.5,20.8-4.5C1104,106,1115.7,110.5,1124.5,119.6" style="fill:#0000D9;"/>
<path d="M1271.7,177.2h-88.2c0.7,8.7,3.8,15.5,9.1,20.5s12,7.4,19.8,7.4c11.3,0,19.4-4.9,24.2-14.6h32.9  c-3.5,11.6-10.2,21.2-20,28.6c-9.9,7.5-22,11.2-36.4,11.2c-11.6,0-22.1-2.6-31.3-7.7c-9.2-5.1-16.4-12.5-21.6-21.9  s-7.7-20.3-7.7-32.7s2.5-23.5,7.6-32.9s12.2-16.7,21.4-21.8c9.2-5.1,19.7-7.6,31.6-7.6s21.7,2.5,30.8,7.4s16.1,11.9,21.1,21  s7.5,19.5,7.5,31.3C1272.6,169.8,1272.3,173.7,1271.7,177.2 M1241,156.7c-0.1-7.8-3-14.1-8.5-18.9c-5.5-4.7-12.3-7.1-20.3-7.1  s-13.9,2.3-19.1,6.9c-5.2,4.6-8.3,10.9-9.5,19.1H1241z" style="fill:#0000D9;"/>
<path d="M1324.9,132.8v58.4c0,4.1,1,7,2.9,8.8c2,1.8,5.3,2.7,9.9,2.7h14.2v25.7h-19.2  c-25.7,0-38.6-12.5-38.6-37.5v-58.2h-14.4v-25.1h14.4V77.9h30.7v29.8h27v25.1L1324.9,132.8L1324.9,132.8z" style="fill:#0000D9;"/>
<polygon points="1542.3,107.7 1507,228.4 1474.1,228.4 1452.1,144.1 1430.1,228.4 1397,228.4 1361.5,107.7   1392.4,107.7 1413.8,199.7 1436.8,107.7 1469.1,107.7 1491.7,199.4 1513.1,107.7 " style="fill:#0000D9;"/>
<path d="M1573.6,222.6c-9.3-5.2-16.6-12.5-21.9-21.9s-7.9-20.3-7.9-32.7s2.7-23.2,8.2-32.7  c5.4-9.4,12.9-16.7,22.3-21.9c9.4-5.2,20-7.7,31.6-7.7s22.2,2.6,31.6,7.7c9.4,5.2,16.9,12.4,22.3,21.9c5.4,9.4,8.2,20.3,8.2,32.7  s-2.8,23.2-8.4,32.7c-5.6,9.4-13.2,16.7-22.7,21.9s-20.2,7.7-31.9,7.7C1593.4,230.4,1582.9,227.8,1573.6,222.6 M1620.6,199.8  c4.9-2.7,8.8-6.7,11.7-12.1c2.9-5.4,4.4-11.9,4.4-19.6c0-11.5-3-20.3-9.1-26.5c-6-6.2-13.4-9.3-22.1-9.3s-16,3.1-21.9,9.3  s-8.8,15-8.8,26.5s2.9,20.3,8.6,26.5s13,9.3,21.7,9.3C1610.5,203.8,1615.7,202.5,1620.6,199.8" style="fill:#0000D9;"/>
<path d="M1728.8,111.4c6.3-3.6,13.5-5.4,21.7-5.4v32h-8.1c-9.6,0-16.8,2.3-21.7,6.8  c-4.9,4.5-7.3,12.4-7.3,23.5v60.1H1683V107.7h30.5v18.7C1717.4,120.1,1722.5,115,1728.8,111.4" style="fill:#0000D9;"/>
<polygon points="1835,228.4 1794,177 1794,228.4 1763.5,228.4 1763.5,67.2 1794,67.2 1794,158.9   1834.6,107.7 1874.2,107.7 1821.1,168.3 1874.7,228.4 " style="fill:#0000D9;"/>
<path d="M143.8,0C64.4,0,0,64.4,0,143.8s64.4,143.8,143.8,143.8s143.8-64.4,143.8-143.8S223.2,0,143.8,0   M87.5,204.8l-43.9-66.1l0,0c17.3-11.5,40.5-6.8,52,10.5l2.4,3.6l88.6-58.9c17.3-11.5,40.6-6.8,52,10.5L87.5,204.8z" style="fill:#0000D9;"/>
</svg>